<svg height="128" width="128" xmlns="http://www.w3.org/2000/svg"><path clip-rule="evenodd" d="M60 32c6.618 0 12-5.383 12-12S66.618 8 60 8c-6.617 0-12 5.383-12 12s5.383 12 12 12zm0-16c2.211 0 4 1.789 4 4s-1.789 4-4 4-4-1.789-4-4 1.79-4 4-4zm16.001-8c2.211 0 4-1.789 4-4s-1.789-4-4-4-4 1.789-4 4 1.789 4 4 4zM24 120h8v-8h-8v8zm0-16h8v-8l-8 8zm8 0v8h8v-8h-8zm8-16h-8v8h8v-8zm8-8h-8v8h8v-8zm-8 16v8h8v-8h-8zm0 24h8v-8h-8v8zm8-16v8h8v-8h-8zm8-8v-8h-8v8h8zm8-16h-8v8h8v-8zm-8 16v8h8v-8h-8zm0 24h8v-8h-8v8zm8-16v8h8v-8h-8zm8.001-8v-8h-8v8h8zm8-16h-8v8h8v-8zm-8 16v8h8v-8h-8zm0 24h8v-8h-8v8zm8-16v8h8v-8h-8zm8-8v-8h-8v8h8zm8 8v-8h-8v8h8zm-8 16h8v-8h-8v8zm8-16v8h8v-8h-8z" fill="#AED581" fill-rule="evenodd"/><path d="M110.415 110.047L80.001 58.938V48h4c2.211 0 4-1.789 4-4s-1.789-4-4-4h-8c-2.211 0-4 1.789-4 4v16c0 .695.184 1.383.527 1.984l30.645 51.578a4.003 4.003 0 0 1 .418 4.203 4.006 4.006 0 0 1-3.59 2.234H28a4.007 4.007 0 0 1-3.59-2.234 4.003 4.003 0 0 1 .418-4.203l30.645-51.578A4.006 4.006 0 0 0 56 60V44c0-2.211-1.789-4-4-4h-8c-2.211 0-4 1.789-4 4s1.789 4 4 4h4v10.938l-30.418 51.109c-2.127 3.711-2.109 8.273.039 11.977S23.723 128 28 128h72c4.277 0 8.23-2.273 10.379-5.977s2.165-8.265.036-11.976z" fill="#546E7A"/></svg>